<?xml version="1.0" standalone="no"?>
<!DOCTYPE svg PUBLIC "-//W3C//DTD SVG 20010904//EN"
 "http://www.w3.org/TR/2001/REC-SVG-20010904/DTD/svg10.dtd">
<svg version="1.0" xmlns="http://www.w3.org/2000/svg"
 width="226.000000pt" height="223.000000pt" viewBox="0 0 226.000000 223.000000"
 preserveAspectRatio="xMidYMid meet">
<metadata>
Created by Abode 2017
</metadata>
<g transform="translate(0.000000,223.000000) scale(0.100000,-0.100000)"
fill="#000000" stroke="none">
<path id="microsoft-icon" d="M770 1685 l0 -185 185 0 185 0 0 185 0 185 -185 0 -185 0 0 -185z"/>
<path d="M1775 956 c-14 -14 -25 -37 -25 -51 0 -16 -6 -25 -15 -25 -8 0 -15
-9 -15 -20 0 -11 7 -20 15 -20 12 0 15 -16 15 -80 0 -73 2 -80 20 -80 18 0 20
7 20 80 l0 80 40 0 40 0 0 -61 c0 -79 11 -99 55 -99 40 0 47 20 13 35 -19 8
-23 19 -26 68 -3 55 -2 57 23 57 18 0 25 5 25 20 0 15 -7 20 -25 20 -20 0 -25
5 -25 25 0 18 -5 25 -20 25 -15 0 -20 -7 -20 -25 0 -22 -4 -25 -40 -25 -33 0
-40 3 -40 19 0 26 27 52 46 44 12 -4 15 -1 12 13 -5 29 -44 29 -73 0z"/>
<path d="M370 821 c0 -134 1 -141 20 -141 19 0 20 7 20 113 l1 112 46 -113
c33 -80 51 -112 62 -110 8 2 31 44 53 98 59 148 58 148 55 17 -2 -115 -2 -117
21 -117 22 0 22 1 22 141 l0 140 -32 -3 c-31 -3 -34 -7 -73 -105 -22 -56 -42
-102 -45 -103 -3 0 -23 46 -45 103 -39 98 -42 102 -73 105 l-32 3 0 -140z"/>
<path d="M1165 868 c-34 -19 -44 -41 -45 -91 0 -65 30 -97 94 -97 68 0 101 32
101 100 0 44 -4 55 -28 76 -31 26 -87 32 -122 12z"/>
<path d="M1543 865 c-32 -23 -47 -77 -33 -120 15 -44 44 -65 93 -65 51 0 76
15 93 56 19 46 9 99 -23 124 -31 24 -99 27 -130 5z"/>
</g>
</svg>
